<mxfile host="Electron" agent="Mozilla/5.0 (Windows NT 10.0; Win64; x64) AppleWebKit/537.36 (KHTML, like Gecko) draw.io/24.7.17 Chrome/128.0.6613.36 Electron/32.0.1 Safari/537.36" version="24.7.17">
  <diagram name="Seite-1" id="dCrqSPuhNAjCOSTEXUXm">
    <mxGraphModel dx="1565" dy="5951" grid="1" gridSize="10" guides="1" tooltips="1" connect="1" arrows="1" fold="1" page="1" pageScale="4" pageWidth="827" pageHeight="1169" math="0" shadow="0">
      <root>
        <mxCell id="0" />
        <mxCell id="1" parent="0" />
        <mxCell id="wzubu8DYFGDBGsBULmZj-1" value="UserData" style="rounded=0;whiteSpace=wrap;html=1;" vertex="1" parent="1">
          <mxGeometry x="350" y="70" width="200" height="80" as="geometry" />
        </mxCell>
        <mxCell id="wzubu8DYFGDBGsBULmZj-2" value="UserNutrition" style="rounded=0;whiteSpace=wrap;html=1;" vertex="1" parent="1">
          <mxGeometry x="350" y="-300" width="200" height="80" as="geometry" />
        </mxCell>
        <mxCell id="wzubu8DYFGDBGsBULmZj-142" style="edgeStyle=orthogonalEdgeStyle;rounded=0;orthogonalLoop=1;jettySize=auto;html=1;exitX=1;exitY=0.5;exitDx=0;exitDy=0;entryX=0;entryY=0.5;entryDx=0;entryDy=0;" edge="1" parent="1" source="wzubu8DYFGDBGsBULmZj-7" target="wzubu8DYFGDBGsBULmZj-1">
          <mxGeometry relative="1" as="geometry" />
        </mxCell>
        <mxCell id="wzubu8DYFGDBGsBULmZj-7" value="&lt;u&gt;UserId&lt;/u&gt;" style="ellipse;whiteSpace=wrap;html=1;" vertex="1" parent="1">
          <mxGeometry x="180" y="-117" width="130" height="60" as="geometry" />
        </mxCell>
        <mxCell id="wzubu8DYFGDBGsBULmZj-141" style="edgeStyle=orthogonalEdgeStyle;rounded=0;orthogonalLoop=1;jettySize=auto;html=1;exitX=1;exitY=0.5;exitDx=0;exitDy=0;entryX=0;entryY=0.5;entryDx=0;entryDy=0;" edge="1" parent="1" source="wzubu8DYFGDBGsBULmZj-8" target="wzubu8DYFGDBGsBULmZj-1">
          <mxGeometry relative="1" as="geometry" />
        </mxCell>
        <mxCell id="wzubu8DYFGDBGsBULmZj-8" value="FirstName" style="ellipse;whiteSpace=wrap;html=1;" vertex="1" parent="1">
          <mxGeometry x="180" y="-47" width="130" height="60" as="geometry" />
        </mxCell>
        <mxCell id="wzubu8DYFGDBGsBULmZj-140" style="edgeStyle=orthogonalEdgeStyle;rounded=0;orthogonalLoop=1;jettySize=auto;html=1;exitX=1;exitY=0.5;exitDx=0;exitDy=0;entryX=0;entryY=0.5;entryDx=0;entryDy=0;" edge="1" parent="1" source="wzubu8DYFGDBGsBULmZj-9" target="wzubu8DYFGDBGsBULmZj-1">
          <mxGeometry relative="1" as="geometry" />
        </mxCell>
        <mxCell id="wzubu8DYFGDBGsBULmZj-9" value="LastName" style="ellipse;whiteSpace=wrap;html=1;" vertex="1" parent="1">
          <mxGeometry x="180" y="23" width="130" height="60" as="geometry" />
        </mxCell>
        <mxCell id="wzubu8DYFGDBGsBULmZj-138" style="edgeStyle=orthogonalEdgeStyle;rounded=0;orthogonalLoop=1;jettySize=auto;html=1;exitX=1;exitY=0.5;exitDx=0;exitDy=0;entryX=0;entryY=0.5;entryDx=0;entryDy=0;" edge="1" parent="1" source="wzubu8DYFGDBGsBULmZj-10" target="wzubu8DYFGDBGsBULmZj-1">
          <mxGeometry relative="1" as="geometry" />
        </mxCell>
        <mxCell id="wzubu8DYFGDBGsBULmZj-10" value="Gender" style="ellipse;whiteSpace=wrap;html=1;" vertex="1" parent="1">
          <mxGeometry x="180" y="163" width="130" height="60" as="geometry" />
        </mxCell>
        <mxCell id="wzubu8DYFGDBGsBULmZj-139" style="edgeStyle=orthogonalEdgeStyle;rounded=0;orthogonalLoop=1;jettySize=auto;html=1;exitX=1;exitY=0.5;exitDx=0;exitDy=0;" edge="1" parent="1" source="wzubu8DYFGDBGsBULmZj-11">
          <mxGeometry relative="1" as="geometry">
            <mxPoint x="350" y="110" as="targetPoint" />
          </mxGeometry>
        </mxCell>
        <mxCell id="wzubu8DYFGDBGsBULmZj-11" value="Email" style="ellipse;whiteSpace=wrap;html=1;" vertex="1" parent="1">
          <mxGeometry x="180" y="93" width="130" height="60" as="geometry" />
        </mxCell>
        <mxCell id="wzubu8DYFGDBGsBULmZj-12" value="UserFitness" style="rounded=0;whiteSpace=wrap;html=1;" vertex="1" parent="1">
          <mxGeometry x="350" y="505" width="200" height="80" as="geometry" />
        </mxCell>
        <mxCell id="wzubu8DYFGDBGsBULmZj-136" style="edgeStyle=orthogonalEdgeStyle;rounded=0;orthogonalLoop=1;jettySize=auto;html=1;exitX=1;exitY=0.5;exitDx=0;exitDy=0;entryX=0;entryY=0.5;entryDx=0;entryDy=0;" edge="1" parent="1" source="wzubu8DYFGDBGsBULmZj-13" target="wzubu8DYFGDBGsBULmZj-1">
          <mxGeometry relative="1" as="geometry" />
        </mxCell>
        <mxCell id="wzubu8DYFGDBGsBULmZj-13" value="Goal" style="ellipse;whiteSpace=wrap;html=1;" vertex="1" parent="1">
          <mxGeometry x="180" y="303" width="130" height="60" as="geometry" />
        </mxCell>
        <mxCell id="wzubu8DYFGDBGsBULmZj-137" style="edgeStyle=orthogonalEdgeStyle;rounded=0;orthogonalLoop=1;jettySize=auto;html=1;exitX=1;exitY=0.5;exitDx=0;exitDy=0;entryX=0;entryY=0.5;entryDx=0;entryDy=0;" edge="1" parent="1" source="wzubu8DYFGDBGsBULmZj-14" target="wzubu8DYFGDBGsBULmZj-1">
          <mxGeometry relative="1" as="geometry" />
        </mxCell>
        <mxCell id="wzubu8DYFGDBGsBULmZj-14" value="BirthDate" style="ellipse;whiteSpace=wrap;html=1;" vertex="1" parent="1">
          <mxGeometry x="180" y="233" width="130" height="60" as="geometry" />
        </mxCell>
        <mxCell id="wzubu8DYFGDBGsBULmZj-130" style="edgeStyle=orthogonalEdgeStyle;rounded=0;orthogonalLoop=1;jettySize=auto;html=1;exitX=1;exitY=0;exitDx=0;exitDy=0;entryX=0;entryY=0.5;entryDx=0;entryDy=0;" edge="1" parent="1" source="wzubu8DYFGDBGsBULmZj-15" target="wzubu8DYFGDBGsBULmZj-12">
          <mxGeometry relative="1" as="geometry" />
        </mxCell>
        <mxCell id="wzubu8DYFGDBGsBULmZj-15" value="&lt;u&gt;FitnessId&lt;/u&gt;" style="ellipse;whiteSpace=wrap;html=1;" vertex="1" parent="1">
          <mxGeometry x="170" y="635" width="130" height="60" as="geometry" />
        </mxCell>
        <mxCell id="wzubu8DYFGDBGsBULmZj-133" style="edgeStyle=orthogonalEdgeStyle;rounded=0;orthogonalLoop=1;jettySize=auto;html=1;exitX=0.5;exitY=0;exitDx=0;exitDy=0;entryX=0.5;entryY=1;entryDx=0;entryDy=0;" edge="1" parent="1" source="wzubu8DYFGDBGsBULmZj-16" target="wzubu8DYFGDBGsBULmZj-12">
          <mxGeometry relative="1" as="geometry" />
        </mxCell>
        <mxCell id="wzubu8DYFGDBGsBULmZj-16" value="HealthDisab" style="ellipse;whiteSpace=wrap;html=1;" vertex="1" parent="1">
          <mxGeometry x="320" y="635" width="130" height="60" as="geometry" />
        </mxCell>
        <mxCell id="wzubu8DYFGDBGsBULmZj-132" style="edgeStyle=orthogonalEdgeStyle;rounded=0;orthogonalLoop=1;jettySize=auto;html=1;exitX=0.5;exitY=0;exitDx=0;exitDy=0;entryX=0.5;entryY=1;entryDx=0;entryDy=0;" edge="1" parent="1" source="wzubu8DYFGDBGsBULmZj-17" target="wzubu8DYFGDBGsBULmZj-12">
          <mxGeometry relative="1" as="geometry" />
        </mxCell>
        <mxCell id="wzubu8DYFGDBGsBULmZj-17" value="Medicaments" style="ellipse;whiteSpace=wrap;html=1;" vertex="1" parent="1">
          <mxGeometry x="460" y="635" width="130" height="60" as="geometry" />
        </mxCell>
        <mxCell id="wzubu8DYFGDBGsBULmZj-134" style="edgeStyle=orthogonalEdgeStyle;rounded=0;orthogonalLoop=1;jettySize=auto;html=1;exitX=0.5;exitY=0;exitDx=0;exitDy=0;entryX=0.5;entryY=1;entryDx=0;entryDy=0;" edge="1" parent="1" source="wzubu8DYFGDBGsBULmZj-18" target="wzubu8DYFGDBGsBULmZj-12">
          <mxGeometry relative="1" as="geometry" />
        </mxCell>
        <mxCell id="wzubu8DYFGDBGsBULmZj-18" value="Allergies" style="ellipse;whiteSpace=wrap;html=1;" vertex="1" parent="1">
          <mxGeometry x="600" y="635" width="130" height="60" as="geometry" />
        </mxCell>
        <mxCell id="wzubu8DYFGDBGsBULmZj-128" style="edgeStyle=orthogonalEdgeStyle;rounded=0;orthogonalLoop=1;jettySize=auto;html=1;exitX=1;exitY=0.5;exitDx=0;exitDy=0;" edge="1" parent="1" source="wzubu8DYFGDBGsBULmZj-19" target="wzubu8DYFGDBGsBULmZj-12">
          <mxGeometry relative="1" as="geometry" />
        </mxCell>
        <mxCell id="wzubu8DYFGDBGsBULmZj-19" value="Weight" style="ellipse;whiteSpace=wrap;html=1;" vertex="1" parent="1">
          <mxGeometry x="170" y="495" width="130" height="60" as="geometry" />
        </mxCell>
        <mxCell id="wzubu8DYFGDBGsBULmZj-135" style="edgeStyle=orthogonalEdgeStyle;rounded=0;orthogonalLoop=1;jettySize=auto;html=1;exitX=0.5;exitY=0;exitDx=0;exitDy=0;entryX=0.5;entryY=1;entryDx=0;entryDy=0;" edge="1" parent="1" source="wzubu8DYFGDBGsBULmZj-20" target="wzubu8DYFGDBGsBULmZj-12">
          <mxGeometry relative="1" as="geometry" />
        </mxCell>
        <mxCell id="wzubu8DYFGDBGsBULmZj-20" value="Height" style="ellipse;whiteSpace=wrap;html=1;" vertex="1" parent="1">
          <mxGeometry x="740" y="635" width="130" height="60" as="geometry" />
        </mxCell>
        <mxCell id="wzubu8DYFGDBGsBULmZj-129" style="edgeStyle=orthogonalEdgeStyle;rounded=0;orthogonalLoop=1;jettySize=auto;html=1;exitX=1;exitY=0.5;exitDx=0;exitDy=0;entryX=0;entryY=0.5;entryDx=0;entryDy=0;" edge="1" parent="1" source="wzubu8DYFGDBGsBULmZj-21" target="wzubu8DYFGDBGsBULmZj-12">
          <mxGeometry relative="1" as="geometry" />
        </mxCell>
        <mxCell id="wzubu8DYFGDBGsBULmZj-21" value="SportClass" style="ellipse;whiteSpace=wrap;html=1;" vertex="1" parent="1">
          <mxGeometry x="170" y="565" width="130" height="60" as="geometry" />
        </mxCell>
        <mxCell id="wzubu8DYFGDBGsBULmZj-143" style="edgeStyle=orthogonalEdgeStyle;rounded=0;orthogonalLoop=1;jettySize=auto;html=1;exitX=0.5;exitY=1;exitDx=0;exitDy=0;entryX=0.5;entryY=0;entryDx=0;entryDy=0;" edge="1" parent="1" source="wzubu8DYFGDBGsBULmZj-22" target="wzubu8DYFGDBGsBULmZj-2">
          <mxGeometry relative="1" as="geometry">
            <mxPoint x="440" y="-320" as="targetPoint" />
          </mxGeometry>
        </mxCell>
        <mxCell id="wzubu8DYFGDBGsBULmZj-22" value="&lt;u&gt;NutritionId&lt;/u&gt;" style="ellipse;whiteSpace=wrap;html=1;" vertex="1" parent="1">
          <mxGeometry x="245" y="-420" width="130" height="60" as="geometry" />
        </mxCell>
        <mxCell id="wzubu8DYFGDBGsBULmZj-144" style="edgeStyle=orthogonalEdgeStyle;rounded=0;orthogonalLoop=1;jettySize=auto;html=1;exitX=0.5;exitY=1;exitDx=0;exitDy=0;" edge="1" parent="1" source="wzubu8DYFGDBGsBULmZj-23">
          <mxGeometry relative="1" as="geometry">
            <mxPoint x="450.3076923076924" y="-300" as="targetPoint" />
          </mxGeometry>
        </mxCell>
        <mxCell id="wzubu8DYFGDBGsBULmZj-23" value="Diet" style="ellipse;whiteSpace=wrap;html=1;" vertex="1" parent="1">
          <mxGeometry x="385" y="-420" width="130" height="60" as="geometry" />
        </mxCell>
        <mxCell id="wzubu8DYFGDBGsBULmZj-145" style="edgeStyle=orthogonalEdgeStyle;rounded=0;orthogonalLoop=1;jettySize=auto;html=1;exitX=0.5;exitY=1;exitDx=0;exitDy=0;entryX=0.5;entryY=0;entryDx=0;entryDy=0;" edge="1" parent="1" source="wzubu8DYFGDBGsBULmZj-24" target="wzubu8DYFGDBGsBULmZj-2">
          <mxGeometry relative="1" as="geometry" />
        </mxCell>
        <mxCell id="wzubu8DYFGDBGsBULmZj-24" value="TrackNutrition" style="ellipse;whiteSpace=wrap;html=1;" vertex="1" parent="1">
          <mxGeometry x="525" y="-420" width="130" height="60" as="geometry" />
        </mxCell>
        <mxCell id="wzubu8DYFGDBGsBULmZj-26" value="Meal" style="rounded=0;whiteSpace=wrap;html=1;" vertex="1" parent="1">
          <mxGeometry x="1030" y="-300" width="200" height="80" as="geometry" />
        </mxCell>
        <mxCell id="wzubu8DYFGDBGsBULmZj-146" style="edgeStyle=orthogonalEdgeStyle;rounded=0;orthogonalLoop=1;jettySize=auto;html=1;exitX=0.5;exitY=1;exitDx=0;exitDy=0;entryX=0.5;entryY=0;entryDx=0;entryDy=0;" edge="1" parent="1" source="wzubu8DYFGDBGsBULmZj-27" target="wzubu8DYFGDBGsBULmZj-26">
          <mxGeometry relative="1" as="geometry" />
        </mxCell>
        <mxCell id="wzubu8DYFGDBGsBULmZj-27" value="&lt;u&gt;DayNutritionId&lt;/u&gt;" style="ellipse;whiteSpace=wrap;html=1;" vertex="1" parent="1">
          <mxGeometry x="898" y="-431" width="130" height="60" as="geometry" />
        </mxCell>
        <mxCell id="wzubu8DYFGDBGsBULmZj-147" style="edgeStyle=orthogonalEdgeStyle;rounded=0;orthogonalLoop=1;jettySize=auto;html=1;exitX=0.5;exitY=1;exitDx=0;exitDy=0;entryX=0.5;entryY=0;entryDx=0;entryDy=0;" edge="1" parent="1" source="wzubu8DYFGDBGsBULmZj-28" target="wzubu8DYFGDBGsBULmZj-26">
          <mxGeometry relative="1" as="geometry" />
        </mxCell>
        <mxCell id="wzubu8DYFGDBGsBULmZj-28" value="name" style="ellipse;whiteSpace=wrap;html=1;" vertex="1" parent="1">
          <mxGeometry x="1038" y="-431" width="130" height="60" as="geometry" />
        </mxCell>
        <mxCell id="wzubu8DYFGDBGsBULmZj-29" value="calories" style="ellipse;whiteSpace=wrap;html=1;" vertex="1" parent="1">
          <mxGeometry x="1178" y="-431" width="130" height="60" as="geometry" />
        </mxCell>
        <mxCell id="wzubu8DYFGDBGsBULmZj-150" style="edgeStyle=orthogonalEdgeStyle;rounded=0;orthogonalLoop=1;jettySize=auto;html=1;exitX=0;exitY=1;exitDx=0;exitDy=0;entryX=0.5;entryY=0;entryDx=0;entryDy=0;" edge="1" parent="1" source="wzubu8DYFGDBGsBULmZj-30" target="wzubu8DYFGDBGsBULmZj-26">
          <mxGeometry relative="1" as="geometry">
            <Array as="points">
              <mxPoint x="1130" y="-377" />
            </Array>
          </mxGeometry>
        </mxCell>
        <mxCell id="wzubu8DYFGDBGsBULmZj-30" value="protein" style="ellipse;whiteSpace=wrap;html=1;" vertex="1" parent="1">
          <mxGeometry x="1321" y="-428" width="130" height="60" as="geometry" />
        </mxCell>
        <mxCell id="wzubu8DYFGDBGsBULmZj-151" style="edgeStyle=orthogonalEdgeStyle;rounded=0;orthogonalLoop=1;jettySize=auto;html=1;exitX=0;exitY=0.5;exitDx=0;exitDy=0;" edge="1" parent="1" source="wzubu8DYFGDBGsBULmZj-31" target="wzubu8DYFGDBGsBULmZj-26">
          <mxGeometry relative="1" as="geometry" />
        </mxCell>
        <mxCell id="wzubu8DYFGDBGsBULmZj-31" value="fat" style="ellipse;whiteSpace=wrap;html=1;" vertex="1" parent="1">
          <mxGeometry x="1321" y="-348" width="130" height="60" as="geometry" />
        </mxCell>
        <mxCell id="wzubu8DYFGDBGsBULmZj-152" style="edgeStyle=orthogonalEdgeStyle;rounded=0;orthogonalLoop=1;jettySize=auto;html=1;exitX=0;exitY=0.5;exitDx=0;exitDy=0;entryX=1;entryY=0.5;entryDx=0;entryDy=0;" edge="1" parent="1" source="wzubu8DYFGDBGsBULmZj-32" target="wzubu8DYFGDBGsBULmZj-26">
          <mxGeometry relative="1" as="geometry">
            <mxPoint x="1249.9999999999998" y="-230" as="targetPoint" />
          </mxGeometry>
        </mxCell>
        <mxCell id="wzubu8DYFGDBGsBULmZj-32" value="carbohydrates" style="ellipse;whiteSpace=wrap;html=1;" vertex="1" parent="1">
          <mxGeometry x="1321" y="-278" width="130" height="60" as="geometry" />
        </mxCell>
        <mxCell id="wzubu8DYFGDBGsBULmZj-153" style="edgeStyle=orthogonalEdgeStyle;rounded=0;orthogonalLoop=1;jettySize=auto;html=1;exitX=0;exitY=0.5;exitDx=0;exitDy=0;entryX=1;entryY=0.5;entryDx=0;entryDy=0;" edge="1" parent="1" source="wzubu8DYFGDBGsBULmZj-33" target="wzubu8DYFGDBGsBULmZj-26">
          <mxGeometry relative="1" as="geometry" />
        </mxCell>
        <mxCell id="wzubu8DYFGDBGsBULmZj-33" value="fiber" style="ellipse;whiteSpace=wrap;html=1;" vertex="1" parent="1">
          <mxGeometry x="1321" y="-208" width="130" height="60" as="geometry" />
        </mxCell>
        <mxCell id="wzubu8DYFGDBGsBULmZj-154" style="edgeStyle=orthogonalEdgeStyle;rounded=0;orthogonalLoop=1;jettySize=auto;html=1;exitX=0;exitY=0;exitDx=0;exitDy=0;entryX=1;entryY=0.5;entryDx=0;entryDy=0;" edge="1" parent="1" source="wzubu8DYFGDBGsBULmZj-34" target="wzubu8DYFGDBGsBULmZj-26">
          <mxGeometry relative="1" as="geometry" />
        </mxCell>
        <mxCell id="wzubu8DYFGDBGsBULmZj-34" value="sugar" style="ellipse;whiteSpace=wrap;html=1;" vertex="1" parent="1">
          <mxGeometry x="1321" y="-138" width="130" height="60" as="geometry" />
        </mxCell>
        <mxCell id="wzubu8DYFGDBGsBULmZj-155" style="edgeStyle=orthogonalEdgeStyle;rounded=0;orthogonalLoop=1;jettySize=auto;html=1;exitX=0.5;exitY=0;exitDx=0;exitDy=0;entryX=0.5;entryY=1;entryDx=0;entryDy=0;" edge="1" parent="1" source="wzubu8DYFGDBGsBULmZj-35" target="wzubu8DYFGDBGsBULmZj-26">
          <mxGeometry relative="1" as="geometry" />
        </mxCell>
        <mxCell id="wzubu8DYFGDBGsBULmZj-35" value="serving_size" style="ellipse;whiteSpace=wrap;html=1;" vertex="1" parent="1">
          <mxGeometry x="1176" y="-144" width="130" height="60" as="geometry" />
        </mxCell>
        <mxCell id="wzubu8DYFGDBGsBULmZj-156" style="edgeStyle=orthogonalEdgeStyle;rounded=0;orthogonalLoop=1;jettySize=auto;html=1;exitX=0.5;exitY=0;exitDx=0;exitDy=0;entryX=0.5;entryY=1;entryDx=0;entryDy=0;" edge="1" parent="1" source="wzubu8DYFGDBGsBULmZj-36" target="wzubu8DYFGDBGsBULmZj-26">
          <mxGeometry relative="1" as="geometry" />
        </mxCell>
        <mxCell id="wzubu8DYFGDBGsBULmZj-36" value="category" style="ellipse;whiteSpace=wrap;html=1;" vertex="1" parent="1">
          <mxGeometry x="1038" y="-144" width="130" height="60" as="geometry" />
        </mxCell>
        <mxCell id="wzubu8DYFGDBGsBULmZj-38" value="Start" style="rounded=0;whiteSpace=wrap;html=1;fillColor=#6d8764;fontColor=#ffffff;strokeColor=#3A5431;" vertex="1" parent="1">
          <mxGeometry x="60" y="-1690" width="120" height="60" as="geometry" />
        </mxCell>
        <mxCell id="wzubu8DYFGDBGsBULmZj-43" value="Enter UserData" style="ellipse;whiteSpace=wrap;html=1;fillColor=#a0522d;strokeColor=#6D1F00;fontColor=#ffffff;" vertex="1" parent="1">
          <mxGeometry x="60" y="-1280" width="120" height="80" as="geometry" />
        </mxCell>
        <mxCell id="wzubu8DYFGDBGsBULmZj-44" value="Enter FitnessData" style="ellipse;whiteSpace=wrap;html=1;fillColor=#a0522d;strokeColor=#6D1F00;fontColor=#ffffff;" vertex="1" parent="1">
          <mxGeometry x="60" y="-1180" width="120" height="80" as="geometry" />
        </mxCell>
        <mxCell id="wzubu8DYFGDBGsBULmZj-45" value="Enter NutritionData" style="ellipse;whiteSpace=wrap;html=1;fillColor=#a0522d;strokeColor=#6D1F00;fontColor=#ffffff;" vertex="1" parent="1">
          <mxGeometry x="60" y="-1080" width="120" height="80" as="geometry" />
        </mxCell>
        <mxCell id="wzubu8DYFGDBGsBULmZj-47" value="" style="endArrow=classic;html=1;rounded=0;entryX=0.5;entryY=0;entryDx=0;entryDy=0;exitX=0.5;exitY=1;exitDx=0;exitDy=0;" edge="1" parent="1" source="wzubu8DYFGDBGsBULmZj-55" target="wzubu8DYFGDBGsBULmZj-71">
          <mxGeometry width="50" height="50" relative="1" as="geometry">
            <mxPoint x="230" y="-1350" as="sourcePoint" />
            <mxPoint x="120" y="-1310" as="targetPoint" />
          </mxGeometry>
        </mxCell>
        <mxCell id="wzubu8DYFGDBGsBULmZj-48" value="" style="endArrow=classic;html=1;rounded=0;entryX=0.5;entryY=0;entryDx=0;entryDy=0;exitX=0.5;exitY=1;exitDx=0;exitDy=0;" edge="1" parent="1" source="wzubu8DYFGDBGsBULmZj-43" target="wzubu8DYFGDBGsBULmZj-44">
          <mxGeometry width="50" height="50" relative="1" as="geometry">
            <mxPoint x="230" y="-1260" as="sourcePoint" />
            <mxPoint x="230" y="-1110" as="targetPoint" />
          </mxGeometry>
        </mxCell>
        <mxCell id="wzubu8DYFGDBGsBULmZj-49" value="" style="endArrow=classic;html=1;rounded=0;entryX=0;entryY=0.5;entryDx=0;entryDy=0;exitX=1;exitY=0.5;exitDx=0;exitDy=0;" edge="1" parent="1" source="wzubu8DYFGDBGsBULmZj-55" target="wzubu8DYFGDBGsBULmZj-69">
          <mxGeometry width="50" height="50" relative="1" as="geometry">
            <mxPoint x="280" y="-1440" as="sourcePoint" />
            <mxPoint x="385" y="-1490" as="targetPoint" />
          </mxGeometry>
        </mxCell>
        <mxCell id="wzubu8DYFGDBGsBULmZj-50" value="" style="endArrow=classic;html=1;rounded=0;entryX=0.5;entryY=0;entryDx=0;entryDy=0;exitX=0.5;exitY=1;exitDx=0;exitDy=0;" edge="1" parent="1" source="wzubu8DYFGDBGsBULmZj-71" target="wzubu8DYFGDBGsBULmZj-43">
          <mxGeometry width="50" height="50" relative="1" as="geometry">
            <mxPoint x="120" y="-1310" as="sourcePoint" />
            <mxPoint x="280" y="-1350" as="targetPoint" />
          </mxGeometry>
        </mxCell>
        <mxCell id="wzubu8DYFGDBGsBULmZj-51" value="" style="endArrow=classic;html=1;rounded=0;entryX=0.5;entryY=0;entryDx=0;entryDy=0;exitX=0.5;exitY=1;exitDx=0;exitDy=0;" edge="1" parent="1" source="wzubu8DYFGDBGsBULmZj-44" target="wzubu8DYFGDBGsBULmZj-45">
          <mxGeometry width="50" height="50" relative="1" as="geometry">
            <mxPoint x="130" y="-1190" as="sourcePoint" />
            <mxPoint x="130" y="-1170" as="targetPoint" />
          </mxGeometry>
        </mxCell>
        <mxCell id="wzubu8DYFGDBGsBULmZj-52" value="" style="endArrow=classic;html=1;rounded=0;exitX=0.5;exitY=1;exitDx=0;exitDy=0;entryX=0.5;entryY=1;entryDx=0;entryDy=0;" edge="1" parent="1" source="wzubu8DYFGDBGsBULmZj-45" target="wzubu8DYFGDBGsBULmZj-69">
          <mxGeometry width="50" height="50" relative="1" as="geometry">
            <mxPoint x="260" y="-1030" as="sourcePoint" />
            <mxPoint x="445" y="-1460" as="targetPoint" />
            <Array as="points">
              <mxPoint x="120" y="-950" />
              <mxPoint x="440" y="-950" />
            </Array>
          </mxGeometry>
        </mxCell>
        <mxCell id="wzubu8DYFGDBGsBULmZj-53" value="" style="endArrow=classic;html=1;rounded=0;exitX=1;exitY=0.5;exitDx=0;exitDy=0;entryX=0;entryY=0.5;entryDx=0;entryDy=0;" edge="1" parent="1" source="wzubu8DYFGDBGsBULmZj-69" target="wzubu8DYFGDBGsBULmZj-54">
          <mxGeometry width="50" height="50" relative="1" as="geometry">
            <mxPoint x="505" y="-1490" as="sourcePoint" />
            <mxPoint x="720" y="-1490" as="targetPoint" />
          </mxGeometry>
        </mxCell>
        <mxCell id="wzubu8DYFGDBGsBULmZj-73" style="edgeStyle=orthogonalEdgeStyle;rounded=0;orthogonalLoop=1;jettySize=auto;html=1;exitX=0.5;exitY=1;exitDx=0;exitDy=0;entryX=0.5;entryY=0;entryDx=0;entryDy=0;" edge="1" parent="1" source="wzubu8DYFGDBGsBULmZj-54" target="wzubu8DYFGDBGsBULmZj-68">
          <mxGeometry relative="1" as="geometry" />
        </mxCell>
        <mxCell id="wzubu8DYFGDBGsBULmZj-54" value="Dashboard" style="rounded=0;whiteSpace=wrap;html=1;fillColor=#76608a;fontColor=#ffffff;strokeColor=#432D57;" vertex="1" parent="1">
          <mxGeometry x="750" y="-1520" width="120" height="60" as="geometry" />
        </mxCell>
        <mxCell id="wzubu8DYFGDBGsBULmZj-55" value="Homepage" style="rounded=0;whiteSpace=wrap;html=1;fillColor=#76608a;fontColor=#ffffff;strokeColor=#432D57;" vertex="1" parent="1">
          <mxGeometry x="60" y="-1520" width="120" height="60" as="geometry" />
        </mxCell>
        <mxCell id="wzubu8DYFGDBGsBULmZj-56" value="" style="endArrow=classic;html=1;rounded=0;entryX=0.5;entryY=0;entryDx=0;entryDy=0;exitX=0.5;exitY=1;exitDx=0;exitDy=0;" edge="1" parent="1" source="wzubu8DYFGDBGsBULmZj-38" target="wzubu8DYFGDBGsBULmZj-55">
          <mxGeometry width="50" height="50" relative="1" as="geometry">
            <mxPoint x="190" y="-1480" as="sourcePoint" />
            <mxPoint x="395" y="-1480" as="targetPoint" />
          </mxGeometry>
        </mxCell>
        <mxCell id="wzubu8DYFGDBGsBULmZj-57" value="hat" style="rhombus;whiteSpace=wrap;html=1;" vertex="1" parent="1">
          <mxGeometry x="370" y="-120" width="160" height="80" as="geometry" />
        </mxCell>
        <mxCell id="wzubu8DYFGDBGsBULmZj-58" value="hat" style="rhombus;whiteSpace=wrap;html=1;" vertex="1" parent="1">
          <mxGeometry x="370" y="292" width="160" height="80" as="geometry" />
        </mxCell>
        <mxCell id="wzubu8DYFGDBGsBULmZj-59" value="erstellt" style="rhombus;whiteSpace=wrap;html=1;" vertex="1" parent="1">
          <mxGeometry x="720" y="-300" width="160" height="80" as="geometry" />
        </mxCell>
        <mxCell id="wzubu8DYFGDBGsBULmZj-60" value="" style="endArrow=none;html=1;rounded=0;exitX=0.5;exitY=0;exitDx=0;exitDy=0;entryX=0.5;entryY=1;entryDx=0;entryDy=0;" edge="1" parent="1" source="wzubu8DYFGDBGsBULmZj-1" target="wzubu8DYFGDBGsBULmZj-57">
          <mxGeometry width="50" height="50" relative="1" as="geometry">
            <mxPoint x="500" y="-20" as="sourcePoint" />
            <mxPoint x="550" y="-70" as="targetPoint" />
          </mxGeometry>
        </mxCell>
        <mxCell id="wzubu8DYFGDBGsBULmZj-85" value="&lt;font style=&quot;font-size: 20px;&quot;&gt;1&lt;/font&gt;" style="edgeLabel;html=1;align=center;verticalAlign=middle;resizable=0;points=[];" vertex="1" connectable="0" parent="wzubu8DYFGDBGsBULmZj-60">
          <mxGeometry x="-0.4724" y="2" relative="1" as="geometry">
            <mxPoint x="12" as="offset" />
          </mxGeometry>
        </mxCell>
        <mxCell id="wzubu8DYFGDBGsBULmZj-61" value="" style="endArrow=none;html=1;rounded=0;exitX=0.5;exitY=0;exitDx=0;exitDy=0;entryX=0.5;entryY=1;entryDx=0;entryDy=0;" edge="1" parent="1" source="wzubu8DYFGDBGsBULmZj-57" target="wzubu8DYFGDBGsBULmZj-2">
          <mxGeometry width="50" height="50" relative="1" as="geometry">
            <mxPoint x="460" y="80" as="sourcePoint" />
            <mxPoint x="460" y="-59" as="targetPoint" />
          </mxGeometry>
        </mxCell>
        <mxCell id="wzubu8DYFGDBGsBULmZj-84" value="&lt;font style=&quot;font-size: 20px;&quot;&gt;1&lt;/font&gt;" style="edgeLabel;html=1;align=center;verticalAlign=middle;resizable=0;points=[];" vertex="1" connectable="0" parent="wzubu8DYFGDBGsBULmZj-61">
          <mxGeometry x="0.5779" y="3" relative="1" as="geometry">
            <mxPoint x="13" as="offset" />
          </mxGeometry>
        </mxCell>
        <mxCell id="wzubu8DYFGDBGsBULmZj-62" value="" style="endArrow=none;html=1;rounded=0;entryX=0.5;entryY=0;entryDx=0;entryDy=0;exitX=0.5;exitY=1;exitDx=0;exitDy=0;" edge="1" parent="1" source="wzubu8DYFGDBGsBULmZj-1" target="wzubu8DYFGDBGsBULmZj-58">
          <mxGeometry width="50" height="50" relative="1" as="geometry">
            <mxPoint x="530" y="190" as="sourcePoint" />
            <mxPoint x="460" y="-30" as="targetPoint" />
          </mxGeometry>
        </mxCell>
        <mxCell id="wzubu8DYFGDBGsBULmZj-101" value="&lt;font style=&quot;font-size: 20px;&quot;&gt;1&lt;/font&gt;" style="edgeLabel;html=1;align=center;verticalAlign=middle;resizable=0;points=[];" vertex="1" connectable="0" parent="wzubu8DYFGDBGsBULmZj-62">
          <mxGeometry x="-0.1458" y="-2" relative="1" as="geometry">
            <mxPoint x="12" y="-18" as="offset" />
          </mxGeometry>
        </mxCell>
        <mxCell id="wzubu8DYFGDBGsBULmZj-63" value="" style="endArrow=none;html=1;rounded=0;exitX=0.5;exitY=0;exitDx=0;exitDy=0;entryX=0.5;entryY=1;entryDx=0;entryDy=0;" edge="1" parent="1" source="wzubu8DYFGDBGsBULmZj-12" target="wzubu8DYFGDBGsBULmZj-58">
          <mxGeometry width="50" height="50" relative="1" as="geometry">
            <mxPoint x="460" y="160" as="sourcePoint" />
            <mxPoint x="300" y="440" as="targetPoint" />
          </mxGeometry>
        </mxCell>
        <mxCell id="wzubu8DYFGDBGsBULmZj-100" value="&lt;font style=&quot;font-size: 20px;&quot;&gt;1&lt;/font&gt;" style="edgeLabel;html=1;align=center;verticalAlign=middle;resizable=0;points=[];" vertex="1" connectable="0" parent="wzubu8DYFGDBGsBULmZj-63">
          <mxGeometry x="-0.1984" y="-1" relative="1" as="geometry">
            <mxPoint x="9" as="offset" />
          </mxGeometry>
        </mxCell>
        <mxCell id="wzubu8DYFGDBGsBULmZj-64" value="" style="endArrow=none;html=1;rounded=0;exitX=1;exitY=0.5;exitDx=0;exitDy=0;entryX=0;entryY=0.5;entryDx=0;entryDy=0;" edge="1" parent="1" source="wzubu8DYFGDBGsBULmZj-2" target="wzubu8DYFGDBGsBULmZj-59">
          <mxGeometry width="50" height="50" relative="1" as="geometry">
            <mxPoint x="460" y="-110" as="sourcePoint" />
            <mxPoint x="460" y="-210" as="targetPoint" />
          </mxGeometry>
        </mxCell>
        <mxCell id="wzubu8DYFGDBGsBULmZj-87" value="&lt;font style=&quot;font-size: 20px;&quot;&gt;1&lt;/font&gt;" style="edgeLabel;html=1;align=center;verticalAlign=middle;resizable=0;points=[];" vertex="1" connectable="0" parent="wzubu8DYFGDBGsBULmZj-64">
          <mxGeometry x="-0.6071" y="2" relative="1" as="geometry">
            <mxPoint y="-16" as="offset" />
          </mxGeometry>
        </mxCell>
        <mxCell id="wzubu8DYFGDBGsBULmZj-65" value="" style="endArrow=none;html=1;rounded=0;entryX=0;entryY=0.5;entryDx=0;entryDy=0;exitX=1;exitY=0.5;exitDx=0;exitDy=0;" edge="1" parent="1" source="wzubu8DYFGDBGsBULmZj-59" target="wzubu8DYFGDBGsBULmZj-26">
          <mxGeometry width="50" height="50" relative="1" as="geometry">
            <mxPoint x="900" y="-160" as="sourcePoint" />
            <mxPoint x="730" y="-250" as="targetPoint" />
          </mxGeometry>
        </mxCell>
        <mxCell id="wzubu8DYFGDBGsBULmZj-86" value="&lt;font style=&quot;font-size: 20px;&quot;&gt;cn&lt;/font&gt;" style="edgeLabel;html=1;align=center;verticalAlign=middle;resizable=0;points=[];" vertex="1" connectable="0" parent="wzubu8DYFGDBGsBULmZj-65">
          <mxGeometry x="0.312" y="2" relative="1" as="geometry">
            <mxPoint y="-16" as="offset" />
          </mxGeometry>
        </mxCell>
        <mxCell id="wzubu8DYFGDBGsBULmZj-66" value="Informations" style="rounded=0;whiteSpace=wrap;html=1;fillColor=#76608a;fontColor=#ffffff;strokeColor=#432D57;" vertex="1" parent="1">
          <mxGeometry x="240" y="-1630" width="120" height="60" as="geometry" />
        </mxCell>
        <mxCell id="wzubu8DYFGDBGsBULmZj-67" value="" style="endArrow=classic;html=1;rounded=0;entryX=0;entryY=1;entryDx=0;entryDy=0;exitX=1;exitY=0;exitDx=0;exitDy=0;" edge="1" parent="1" source="wzubu8DYFGDBGsBULmZj-55" target="wzubu8DYFGDBGsBULmZj-66">
          <mxGeometry width="50" height="50" relative="1" as="geometry">
            <mxPoint x="270" y="-1350" as="sourcePoint" />
            <mxPoint x="320" y="-1400" as="targetPoint" />
          </mxGeometry>
        </mxCell>
        <mxCell id="wzubu8DYFGDBGsBULmZj-76" style="edgeStyle=orthogonalEdgeStyle;rounded=0;orthogonalLoop=1;jettySize=auto;html=1;exitX=0.5;exitY=1;exitDx=0;exitDy=0;entryX=0.5;entryY=0;entryDx=0;entryDy=0;" edge="1" parent="1" source="wzubu8DYFGDBGsBULmZj-68" target="wzubu8DYFGDBGsBULmZj-74">
          <mxGeometry relative="1" as="geometry" />
        </mxCell>
        <mxCell id="wzubu8DYFGDBGsBULmZj-68" value="New Meal" style="rounded=1;whiteSpace=wrap;html=1;fillColor=#fa6800;fontColor=#000000;strokeColor=#C73500;" vertex="1" parent="1">
          <mxGeometry x="750" y="-1310" width="120" height="60" as="geometry" />
        </mxCell>
        <mxCell id="wzubu8DYFGDBGsBULmZj-69" value="Login" style="rounded=1;whiteSpace=wrap;html=1;fillColor=#fa6800;fontColor=#000000;strokeColor=#C73500;" vertex="1" parent="1">
          <mxGeometry x="385" y="-1520" width="120" height="60" as="geometry" />
        </mxCell>
        <mxCell id="wzubu8DYFGDBGsBULmZj-71" value="Register" style="rounded=1;whiteSpace=wrap;html=1;fillColor=#fa6800;fontColor=#000000;strokeColor=#C73500;" vertex="1" parent="1">
          <mxGeometry x="60" y="-1370" width="120" height="60" as="geometry" />
        </mxCell>
        <mxCell id="wzubu8DYFGDBGsBULmZj-77" style="edgeStyle=orthogonalEdgeStyle;rounded=0;orthogonalLoop=1;jettySize=auto;html=1;exitX=0.5;exitY=1;exitDx=0;exitDy=0;entryX=0.5;entryY=0;entryDx=0;entryDy=0;" edge="1" parent="1" source="wzubu8DYFGDBGsBULmZj-74" target="wzubu8DYFGDBGsBULmZj-75">
          <mxGeometry relative="1" as="geometry" />
        </mxCell>
        <mxCell id="wzubu8DYFGDBGsBULmZj-74" value="Enter Meal" style="ellipse;whiteSpace=wrap;html=1;fillColor=#a0522d;strokeColor=#6D1F00;fontColor=#ffffff;" vertex="1" parent="1">
          <mxGeometry x="750" y="-1220" width="120" height="80" as="geometry" />
        </mxCell>
        <mxCell id="wzubu8DYFGDBGsBULmZj-78" style="edgeStyle=orthogonalEdgeStyle;rounded=0;orthogonalLoop=1;jettySize=auto;html=1;exitX=0.5;exitY=1;exitDx=0;exitDy=0;entryX=0;entryY=0.5;entryDx=0;entryDy=0;fillColor=#f5f5f5;strokeColor=#FAFAFA;" edge="1" parent="1" source="wzubu8DYFGDBGsBULmZj-75" target="wzubu8DYFGDBGsBULmZj-54">
          <mxGeometry relative="1" as="geometry">
            <mxPoint x="750" y="-1490" as="targetPoint" />
            <Array as="points">
              <mxPoint x="810" y="-1020" />
              <mxPoint x="600" y="-1020" />
              <mxPoint x="600" y="-1490" />
            </Array>
          </mxGeometry>
        </mxCell>
        <mxCell id="wzubu8DYFGDBGsBULmZj-75" value="Enter Meal_size" style="ellipse;whiteSpace=wrap;html=1;fillColor=#a0522d;strokeColor=#6D1F00;fontColor=#ffffff;" vertex="1" parent="1">
          <mxGeometry x="750" y="-1120" width="120" height="80" as="geometry" />
        </mxCell>
        <mxCell id="wzubu8DYFGDBGsBULmZj-83" value="FitnessActivity" style="rounded=0;whiteSpace=wrap;html=1;" vertex="1" parent="1">
          <mxGeometry x="1260" y="505" width="200" height="80" as="geometry" />
        </mxCell>
        <mxCell id="wzubu8DYFGDBGsBULmZj-127" style="edgeStyle=orthogonalEdgeStyle;rounded=0;orthogonalLoop=1;jettySize=auto;html=1;exitX=0.5;exitY=0;exitDx=0;exitDy=0;entryX=0.5;entryY=1;entryDx=0;entryDy=0;" edge="1" parent="1" source="wzubu8DYFGDBGsBULmZj-89" target="wzubu8DYFGDBGsBULmZj-83">
          <mxGeometry relative="1" as="geometry" />
        </mxCell>
        <mxCell id="wzubu8DYFGDBGsBULmZj-89" value="&lt;font style=&quot;font-size: 13px;&quot;&gt;&lt;u&gt;FitnessActivityId&lt;/u&gt;&lt;/font&gt;" style="ellipse;whiteSpace=wrap;html=1;" vertex="1" parent="1">
          <mxGeometry x="1120" y="635" width="130" height="60" as="geometry" />
        </mxCell>
        <mxCell id="wzubu8DYFGDBGsBULmZj-126" style="edgeStyle=orthogonalEdgeStyle;rounded=0;orthogonalLoop=1;jettySize=auto;html=1;exitX=0.5;exitY=0;exitDx=0;exitDy=0;entryX=0.5;entryY=1;entryDx=0;entryDy=0;" edge="1" parent="1" source="wzubu8DYFGDBGsBULmZj-90" target="wzubu8DYFGDBGsBULmZj-83">
          <mxGeometry relative="1" as="geometry" />
        </mxCell>
        <mxCell id="wzubu8DYFGDBGsBULmZj-90" value="Category" style="ellipse;whiteSpace=wrap;html=1;" vertex="1" parent="1">
          <mxGeometry x="1260" y="635" width="130" height="60" as="geometry" />
        </mxCell>
        <mxCell id="wzubu8DYFGDBGsBULmZj-125" style="edgeStyle=orthogonalEdgeStyle;rounded=0;orthogonalLoop=1;jettySize=auto;html=1;exitX=0.5;exitY=0;exitDx=0;exitDy=0;entryX=1;entryY=0.5;entryDx=0;entryDy=0;" edge="1" parent="1" source="wzubu8DYFGDBGsBULmZj-91" target="wzubu8DYFGDBGsBULmZj-83">
          <mxGeometry relative="1" as="geometry" />
        </mxCell>
        <mxCell id="wzubu8DYFGDBGsBULmZj-91" value="Time" style="ellipse;whiteSpace=wrap;html=1;" vertex="1" parent="1">
          <mxGeometry x="1400" y="635" width="130" height="60" as="geometry" />
        </mxCell>
        <mxCell id="wzubu8DYFGDBGsBULmZj-124" style="edgeStyle=orthogonalEdgeStyle;rounded=0;orthogonalLoop=1;jettySize=auto;html=1;exitX=0;exitY=0;exitDx=0;exitDy=0;entryX=1;entryY=0.5;entryDx=0;entryDy=0;" edge="1" parent="1" source="wzubu8DYFGDBGsBULmZj-92" target="wzubu8DYFGDBGsBULmZj-83">
          <mxGeometry relative="1" as="geometry" />
        </mxCell>
        <mxCell id="wzubu8DYFGDBGsBULmZj-92" value="Steps" style="ellipse;whiteSpace=wrap;html=1;" vertex="1" parent="1">
          <mxGeometry x="1540" y="635" width="130" height="60" as="geometry" />
        </mxCell>
        <mxCell id="wzubu8DYFGDBGsBULmZj-123" style="edgeStyle=orthogonalEdgeStyle;rounded=0;orthogonalLoop=1;jettySize=auto;html=1;exitX=0;exitY=0.5;exitDx=0;exitDy=0;entryX=1;entryY=0.5;entryDx=0;entryDy=0;" edge="1" parent="1" source="wzubu8DYFGDBGsBULmZj-93" target="wzubu8DYFGDBGsBULmZj-83">
          <mxGeometry relative="1" as="geometry" />
        </mxCell>
        <mxCell id="wzubu8DYFGDBGsBULmZj-93" value="Muscle" style="ellipse;whiteSpace=wrap;html=1;" vertex="1" parent="1">
          <mxGeometry x="1540" y="565" width="130" height="60" as="geometry" />
        </mxCell>
        <mxCell id="wzubu8DYFGDBGsBULmZj-94" value="erstellt" style="rhombus;whiteSpace=wrap;html=1;" vertex="1" parent="1">
          <mxGeometry x="810" y="505" width="160" height="80" as="geometry" />
        </mxCell>
        <mxCell id="wzubu8DYFGDBGsBULmZj-95" value="" style="endArrow=none;html=1;rounded=0;exitX=1;exitY=0.5;exitDx=0;exitDy=0;entryX=0;entryY=0.5;entryDx=0;entryDy=0;" edge="1" parent="1" target="wzubu8DYFGDBGsBULmZj-94" source="wzubu8DYFGDBGsBULmZj-12">
          <mxGeometry width="50" height="50" relative="1" as="geometry">
            <mxPoint x="688" y="620" as="sourcePoint" />
            <mxPoint x="598" y="670" as="targetPoint" />
          </mxGeometry>
        </mxCell>
        <mxCell id="wzubu8DYFGDBGsBULmZj-96" value="&lt;font style=&quot;font-size: 20px;&quot;&gt;1&lt;/font&gt;" style="edgeLabel;html=1;align=center;verticalAlign=middle;resizable=0;points=[];" vertex="1" connectable="0" parent="wzubu8DYFGDBGsBULmZj-95">
          <mxGeometry x="-0.6071" y="2" relative="1" as="geometry">
            <mxPoint y="-16" as="offset" />
          </mxGeometry>
        </mxCell>
        <mxCell id="wzubu8DYFGDBGsBULmZj-97" value="" style="endArrow=none;html=1;rounded=0;entryX=0;entryY=0.5;entryDx=0;entryDy=0;exitX=1;exitY=0.5;exitDx=0;exitDy=0;" edge="1" parent="1" source="wzubu8DYFGDBGsBULmZj-94" target="wzubu8DYFGDBGsBULmZj-83">
          <mxGeometry width="50" height="50" relative="1" as="geometry">
            <mxPoint x="1038" y="720" as="sourcePoint" />
            <mxPoint x="1168" y="620" as="targetPoint" />
          </mxGeometry>
        </mxCell>
        <mxCell id="wzubu8DYFGDBGsBULmZj-98" value="&lt;font style=&quot;font-size: 20px;&quot;&gt;cn&lt;/font&gt;" style="edgeLabel;html=1;align=center;verticalAlign=middle;resizable=0;points=[];" vertex="1" connectable="0" parent="wzubu8DYFGDBGsBULmZj-97">
          <mxGeometry x="0.312" y="2" relative="1" as="geometry">
            <mxPoint y="-16" as="offset" />
          </mxGeometry>
        </mxCell>
        <mxCell id="wzubu8DYFGDBGsBULmZj-122" style="edgeStyle=orthogonalEdgeStyle;rounded=0;orthogonalLoop=1;jettySize=auto;html=1;exitX=0;exitY=0.5;exitDx=0;exitDy=0;entryX=1;entryY=0.5;entryDx=0;entryDy=0;" edge="1" parent="1" source="wzubu8DYFGDBGsBULmZj-99" target="wzubu8DYFGDBGsBULmZj-83">
          <mxGeometry relative="1" as="geometry" />
        </mxCell>
        <mxCell id="wzubu8DYFGDBGsBULmZj-99" value="Intensity" style="ellipse;whiteSpace=wrap;html=1;" vertex="1" parent="1">
          <mxGeometry x="1540" y="495" width="130" height="60" as="geometry" />
        </mxCell>
        <mxCell id="wzubu8DYFGDBGsBULmZj-110" style="edgeStyle=orthogonalEdgeStyle;rounded=0;orthogonalLoop=1;jettySize=auto;html=1;exitX=0.5;exitY=0;exitDx=0;exitDy=0;entryX=0.5;entryY=1;entryDx=0;entryDy=0;" edge="1" parent="1" source="wzubu8DYFGDBGsBULmZj-104" target="wzubu8DYFGDBGsBULmZj-108">
          <mxGeometry relative="1" as="geometry" />
        </mxCell>
        <mxCell id="wzubu8DYFGDBGsBULmZj-104" value="New Activity" style="rounded=1;whiteSpace=wrap;html=1;fillColor=#fa6800;fontColor=#000000;strokeColor=#C73500;" vertex="1" parent="1">
          <mxGeometry x="750" y="-1650" width="120" height="60" as="geometry" />
        </mxCell>
        <mxCell id="wzubu8DYFGDBGsBULmZj-112" style="edgeStyle=orthogonalEdgeStyle;rounded=0;orthogonalLoop=1;jettySize=auto;html=1;exitX=0.5;exitY=0;exitDx=0;exitDy=0;entryX=0;entryY=0.5;entryDx=0;entryDy=0;" edge="1" parent="1" source="wzubu8DYFGDBGsBULmZj-106" target="wzubu8DYFGDBGsBULmZj-54">
          <mxGeometry relative="1" as="geometry">
            <Array as="points">
              <mxPoint x="810" y="-1900" />
              <mxPoint x="600" y="-1900" />
              <mxPoint x="600" y="-1490" />
            </Array>
          </mxGeometry>
        </mxCell>
        <mxCell id="wzubu8DYFGDBGsBULmZj-106" value="Enter Time, Muscle ..." style="ellipse;whiteSpace=wrap;html=1;fillColor=#a0522d;strokeColor=#6D1F00;fontColor=#ffffff;" vertex="1" parent="1">
          <mxGeometry x="750" y="-1880" width="120" height="80" as="geometry" />
        </mxCell>
        <mxCell id="wzubu8DYFGDBGsBULmZj-111" style="edgeStyle=orthogonalEdgeStyle;rounded=0;orthogonalLoop=1;jettySize=auto;html=1;exitX=0.5;exitY=0;exitDx=0;exitDy=0;entryX=0.5;entryY=1;entryDx=0;entryDy=0;" edge="1" parent="1" source="wzubu8DYFGDBGsBULmZj-108" target="wzubu8DYFGDBGsBULmZj-106">
          <mxGeometry relative="1" as="geometry" />
        </mxCell>
        <mxCell id="wzubu8DYFGDBGsBULmZj-108" value="Enter Category" style="ellipse;whiteSpace=wrap;html=1;fillColor=#a0522d;strokeColor=#6D1F00;fontColor=#ffffff;" vertex="1" parent="1">
          <mxGeometry x="750" y="-1770" width="120" height="80" as="geometry" />
        </mxCell>
        <mxCell id="wzubu8DYFGDBGsBULmZj-109" style="edgeStyle=orthogonalEdgeStyle;rounded=0;orthogonalLoop=1;jettySize=auto;html=1;exitX=0.5;exitY=0;exitDx=0;exitDy=0;entryX=0.5;entryY=1;entryDx=0;entryDy=0;" edge="1" parent="1" source="wzubu8DYFGDBGsBULmZj-54" target="wzubu8DYFGDBGsBULmZj-104">
          <mxGeometry relative="1" as="geometry" />
        </mxCell>
        <mxCell id="wzubu8DYFGDBGsBULmZj-114" value="Tipps" style="rounded=0;whiteSpace=wrap;html=1;fillColor=#76608a;strokeColor=#432D57;fontColor=#ffffff;" vertex="1" parent="1">
          <mxGeometry x="970" y="-1610" width="120" height="60" as="geometry" />
        </mxCell>
        <mxCell id="wzubu8DYFGDBGsBULmZj-115" value="" style="endArrow=classic;startArrow=classic;html=1;rounded=0;entryX=1;entryY=0;entryDx=0;entryDy=0;exitX=0;exitY=0.5;exitDx=0;exitDy=0;" edge="1" parent="1" source="wzubu8DYFGDBGsBULmZj-114" target="wzubu8DYFGDBGsBULmZj-54">
          <mxGeometry width="50" height="50" relative="1" as="geometry">
            <mxPoint x="1000" y="-1360" as="sourcePoint" />
            <mxPoint x="1050" y="-1410" as="targetPoint" />
          </mxGeometry>
        </mxCell>
        <mxCell id="wzubu8DYFGDBGsBULmZj-120" value="Profile" style="rounded=0;whiteSpace=wrap;html=1;fillColor=#76608a;strokeColor=#432D57;fontColor=#ffffff;" vertex="1" parent="1">
          <mxGeometry x="970" y="-1420" width="120" height="60" as="geometry" />
        </mxCell>
        <mxCell id="wzubu8DYFGDBGsBULmZj-121" value="" style="endArrow=classic;startArrow=classic;html=1;rounded=0;entryX=1;entryY=1;entryDx=0;entryDy=0;exitX=0;exitY=0.5;exitDx=0;exitDy=0;" edge="1" parent="1" source="wzubu8DYFGDBGsBULmZj-120" target="wzubu8DYFGDBGsBULmZj-54">
          <mxGeometry width="50" height="50" relative="1" as="geometry">
            <mxPoint x="1030" y="-1160" as="sourcePoint" />
            <mxPoint x="900" y="-1320" as="targetPoint" />
          </mxGeometry>
        </mxCell>
        <mxCell id="wzubu8DYFGDBGsBULmZj-148" style="edgeStyle=orthogonalEdgeStyle;rounded=0;orthogonalLoop=1;jettySize=auto;html=1;exitX=0.5;exitY=1;exitDx=0;exitDy=0;" edge="1" parent="1" source="wzubu8DYFGDBGsBULmZj-29">
          <mxGeometry relative="1" as="geometry">
            <mxPoint x="1130" y="-300" as="targetPoint" />
          </mxGeometry>
        </mxCell>
      </root>
    </mxGraphModel>
  </diagram>
</mxfile>
